<svg xmlns="http://www.w3.org/2000/svg" version="1.1" xmlns:xlink="http://www.w3.org/1999/xlink" xmlns:svgjs="http://svgjs.com/svgjs" width="1440" height="560" preserveAspectRatio="none" viewBox="0 0 1440 560"><g mask="url(&quot;#SvgjsMask2201&quot;)" fill="none"><rect width="1440" height="560" x="0" y="0" fill="rgba(12, 204, 191, 1)"></rect><path d="M 0,39 C 96,64.4 288,157.8 480,166 C 672,174.2 768,80.2 960,80 C 1152,79.8 1344,148 1440,165L1440 560L0 560z" fill="rgba(33, 247, 249, 1)"></path><path d="M 0,280 C 57.6,265 172.8,199.4 288,205 C 403.2,210.6 460.8,310.2 576,308 C 691.2,305.8 748.8,186.8 864,194 C 979.2,201.2 1036.8,334.8 1152,344 C 1267.2,353.2 1382.4,260.8 1440,240L1440 560L0 560z" fill="rgba(5, 239, 217, 1)"></path><path d="M 0,379 C 18,408.2 54,513 90,525 C 126,537 144,439.8 180,439 C 216,438.2 234,529.4 270,521 C 306,512.6 324,395.6 360,397 C 396,398.4 414,525.6 450,528 C 486,530.4 504,402.8 540,409 C 576,415.2 594,554.2 630,559 C 666,563.8 684,441.6 720,433 C 756,424.4 774,515.8 810,516 C 846,516.2 864,443.2 900,434 C 936,424.8 954,465 990,470 C 1026,475 1044,450.8 1080,459 C 1116,467.2 1134,515 1170,511 C 1206,507 1224,441.6 1260,439 C 1296,436.4 1314,505.2 1350,498 C 1386,490.8 1422,422 1440,403L1440 560L0 560z" fill="rgba(0, 16, 14, 0.98)"></path></g><defs><mask id="SvgjsMask2201"><rect width="1440" height="560" fill="#ffffff"></rect></mask></defs></svg>